<?xml version="1.0" encoding="UTF-8" standalone="no"?>
<svg
   xmlns:dc="http://purl.org/dc/elements/1.1/"
   xmlns:cc="http://creativecommons.org/ns#"
   xmlns:rdf="http://www.w3.org/1999/02/22-rdf-syntax-ns#"
   xmlns:svg="http://www.w3.org/2000/svg"
   xmlns="http://www.w3.org/2000/svg"
   xmlns:sodipodi="http://sodipodi.sourceforge.net/DTD/sodipodi-0.dtd"
   xmlns:inkscape="http://www.inkscape.org/namespaces/inkscape"
   width="100"
   height="100"
   viewBox="0 0 26.458333 26.458334"
   version="1.1"
   id="svg8"
   inkscape:version="1.0.1 (3bc2e813f5, 2020-09-07)"
   sodipodi:docname="dagger.svg"
   inkscape:export-filename="D:\UserData\Documents\Programming\MasterSpark\art\dagger.png"
   inkscape:export-xdpi="96"
   inkscape:export-ydpi="96">
  <defs
     id="defs2" />
  <sodipodi:namedview
     id="base"
     pagecolor="#ffffff"
     bordercolor="#666666"
     borderopacity="1.0"
     inkscape:pageopacity="0.0"
     inkscape:pageshadow="2"
     inkscape:zoom="7.0576471"
     inkscape:cx="44.658118"
     inkscape:cy="56.314342"
     inkscape:document-units="px"
     inkscape:current-layer="g951"
     inkscape:document-rotation="0"
     showgrid="true"
     units="px"
     inkscape:window-width="1920"
     inkscape:window-height="1027"
     inkscape:window-x="-8"
     inkscape:window-y="-8"
     inkscape:window-maximized="1"
     inkscape:snap-object-midpoints="false">
    <inkscape:grid
       type="xygrid"
       id="grid833" />
  </sodipodi:namedview>
  <metadata
     id="metadata5">
    <rdf:RDF>
      <cc:Work
         rdf:about="">
        <dc:format>image/svg+xml</dc:format>
        <dc:type
           rdf:resource="http://purl.org/dc/dcmitype/StillImage" />
        <dc:title />
      </cc:Work>
    </rdf:RDF>
  </metadata>
  <g
     inkscape:label="Layer 1"
     inkscape:groupmode="layer"
     id="layer1">
    <g
       id="g951">
      <path
         id="path844"
         style="fill:#4d4d4d;stroke:none;stroke-width:3;stroke-linecap:round;stroke-linejoin:bevel;stroke-miterlimit:4;stroke-dasharray:none;fill-opacity:1"
         d="M 49.980469,0 A 9.9999998,9.9999998 0 0 0 40,10 9.9999998,9.9999998 0 0 0 50,20 9.9999998,9.9999998 0 0 0 60,10 9.9999998,9.9999998 0 0 0 50,0 9.9999998,9.9999998 0 0 0 49.980469,0 Z M 49.90625,3 A 6.9999998,6.9999998 0 0 1 50,3 a 6.9999998,6.9999998 0 0 1 7,7 6.9999998,6.9999998 0 0 1 -7,7 6.9999998,6.9999998 0 0 1 -7,-7 6.9999998,6.9999998 0 0 1 6.90625,-7 z"
         transform="scale(0.26458333)" />
      <path
         id="path831"
         style="fill:#999999;stroke:none;stroke-width:3;stroke-linecap:round;stroke-linejoin:bevel;stroke-miterlimit:4;stroke-dasharray:none;stroke-opacity:1"
         d="M 48.742188 16.884766 L 30 45 L 50 100 L 70 45 L 51.257812 16.886719 A 6.9999998 6.9999998 0 0 1 50 17 A 6.9999998 6.9999998 0 0 1 48.742188 16.884766 z "
         transform="scale(0.26458333)" />
      <path
         style="fill:#b3b3b3;stroke:none;stroke-width:0.264583px;stroke-linecap:butt;stroke-linejoin:miter;stroke-opacity:1;fill-opacity:1"
         d="m 7.9374999,11.90625 5.2916671,1.852083 v 12.7 z"
         id="path846" />
      <path
         style="fill:#808080;stroke:none;stroke-width:0.264583px;stroke-linecap:butt;stroke-linejoin:miter;stroke-opacity:1;fill-opacity:1"
         d="m 13.229167,26.458333 v -12.7 l 5.291666,-1.852083 z"
         id="path848" />
      <path
         id="path865"
         style="fill:#808080;stroke:none;stroke-width:0.999999px;stroke-linecap:butt;stroke-linejoin:miter;stroke-opacity:1;fill-opacity:1"
         d="M 48.742188 16.884766 L 30 45 L 50 52 L 50 17 A 6.9999998 6.9999998 0 0 1 48.742188 16.884766 z "
         transform="scale(0.26458333)" />
      <path
         id="path844-6"
         style="fill:#808080;stroke:none;stroke-width:0.79375;stroke-linecap:round;stroke-linejoin:bevel;stroke-miterlimit:4;stroke-dasharray:none;fill-opacity:1"
         d="M 13.229167,0 A 2.6458332,2.6458332 0 0 0 13.20953,5.1676432e-4 V 0.79374999 a 1.8520833,1.8520833 0 0 1 0.0248,0 1.8520833,1.8520833 0 0 1 1.852084,1.85208331 1.8520833,1.8520833 0 0 1 -1.852084,1.8520833 1.8520833,1.8520833 0 0 1 -0.0248,-5.167e-4 v 0.79375 a 2.6458332,2.6458332 0 0 0 0.0248,5.167e-4 A 2.6458332,2.6458332 0 0 0 15.880168,2.6458333 2.6458332,2.6458332 0 0 0 13.234334,0 a 2.6458332,2.6458332 0 0 0 -0.0052,0 z" />
      <path
         id="path867"
         style="fill:#4d4d4d;stroke:none;stroke-width:0.264583px;stroke-linecap:butt;stroke-linejoin:miter;stroke-opacity:1;fill-opacity:1"
         d="m 13.561963,4.4679447 a 1.8520833,1.8520833 0 0 1 -0.332796,0.029972 v 9.2604173 l 5.291667,-1.852083 z" />
    </g>
  </g>
</svg>
